# xmcd
#
# Track frame offsets:
#	150
#	13425
#	32855
#	49093
#	61820
#	78189
#	96146
#	113379
#	125916
#	144066
#	170616
#	184992
#
# Disc length: 2472 seconds
#
# Revision: 0
# Processed by: cddbd v1.5.2PL0 Copyright (c) Steve Scherf et al.
# Submitted via: dBpowerAMP V4.0
#
DISCID=9d09a60c
DTITLE=King Freddy - 10 jaar King Freddy
DYEAR=2008
DGENRE=Country
TTITLE0=Blankenberge
TTITLE1=Den Harry
TTITLE2=Diep in a hart
TTITLE3=Begijnenblues
TTITLE4=Lydia
TTITLE5=Den Truckerswals
TTITLE6=Gij blijft bij mij
TTITLE7=Ik rij ni zat
TTITLE8=Me mijne camion
TTITLE9=Tankstationneke
TTITLE10=Den ideale vent (live)
TTITLE11=bonus
EXTD=
EXTT0=
EXTT1=
EXTT2=
EXTT3=
EXTT4=
EXTT5=
EXTT6=
EXTT7=
EXTT8=
EXTT9=
EXTT10=
EXTT11=
PLAYORDER=
